# xmcd
#
# Track frame offsets: 
#        150
#        14425
#        24450
#        35370
#        47032
#        58712
#        76762
#        84390
#        103025
#        114005
#        133752
#        146012
#        159037
#        179135
#        193020
#        202960
#        218810
#        231787
#        240707
#        255392
#        267242
#        281235
#        293807
#
# Disc length: 4204 seconds
#
# Revision: 4
# Processed by: cddbd v1.5.2PL0 Copyright (c) Steve Scherf et al.
# Submitted via: ExactAudioCopy v1.3
#
DISCID=41106a17
DTITLE=Various Artist - That High Lonesome Sound
DYEAR=1988
DGENRE=Bluegrass
TTITLE0=Peter Rowan and The Nashville Bluesgrass Band - That High Loneso
TTITLE0=me Sound
TTITLE1=Doc Watson - I'm Going Back To The Old Home
TTITLE2=Bill Clifton - Darlin' Corey
TTITLE3=Skaggs and Rice - Where The Soul Of Man Never Dies
TTITLE4=Johnson Mountain Boys - Blue Yodel #3
TTITLE5=Tim and Molly O'Brien - Looking for The Stone
TTITLE6=Alan Munde - Blue Ridge Express
TTITLE7=Mike Auldridge - Trains Make Me Lonesome
TTITLE8=Here Today - Foggy Mountain Chimes
TTITLE9=The Blue Sky Boys - Tramp On The Street
TTITLE10=Boone Creek - One Way Track
TTITLE11=The Osborne Brothes - Blue Moon Of Kentucky
TTITLE12=Alison Krauss and The Cox Family - When God Dips His Pen Of Lov
TTITLE12=e In My Heart
TTITLE13=JD Crowe and The New South - Rock Salt and Nails
TTITLE14=Vassar Clements - Come On Home
TTITLE15=The Lonesome River Band - Running Hard On A Broken Heart
TTITLE16=The McCoury Brothers - I Was Left On The Street
TTITLE17=David Grisman - I Ain't Broke, but I'm Badly Bent
TTITLE18=Lonesome Standard Time - My Hands Are Tied
TTITLE19=Hot Rize - If I Should Wander Back Tonight
TTITLE20=JD Crowe, Tony Rice, Doyle Lawson, Bobby Hicks, Todd Phillips
TTITLE20=Molly and Tenbrooks
TTITLE21=Larry Cordle, Glen Duncan and Lonesome Standard Time - Kentucky
TTITLE21=King
TTITLE22=Nashville Bluegrass Band and The Fairfield Four - Roll Jordan R
TTITLE22=oll
EXTD=
EXTT0=
EXTT1=
EXTT2=
EXTT3=
EXTT4=
EXTT5=
EXTT6=
EXTT7=
EXTT8=
EXTT9=
EXTT10=
EXTT11=
EXTT12=
EXTT13=
EXTT14=
EXTT15=
EXTT16=
EXTT17=
EXTT18=
EXTT19=
EXTT20=
EXTT21=
EXTT22=
PLAYORDER=
